<?xml version="1.0" standalone="no"?>
<!DOCTYPE svg PUBLIC "-//W3C//DTD SVG 20010904//EN"
 "http://www.w3.org/TR/2001/REC-SVG-20010904/DTD/svg10.dtd">
<svg version="1.0" xmlns="http://www.w3.org/2000/svg"
 width="264.000000pt" height="300.000000pt" viewBox="0 0 264.000000 300.000000"
 preserveAspectRatio="xMidYMid meet">

<g transform="translate(0.000000,300.000000) scale(0.100000,-0.100000)"
fill="#000000" stroke="none">
<path d="M10 1690 l0 -1290 1310 0 1310 0 0 455 c0 297 -3 455 -10 455 -7 0
-10 285 -10 835 l0 835 -1300 0 -1300 0 0 -1290z m2508 413 l2 -793 -1210 0
-1210 0 0 788 c0 434 3 792 7 795 3 4 547 6 1207 5 l1201 -3 3 -792z m-1290
-1000 c68 -42 105 -108 110 -193 5 -84 -10 -131 -57 -183 -148 -164 -431 -60
-431 159 0 77 20 124 75 180 59 59 101 75 193 70 48 -3 74 -11 110 -33z m-675
13 c47 -19 71 -61 71 -121 0 -94 -49 -135 -164 -135 l-70 0 0 -106 c0 -80 -3
-105 -12 -102 -10 4 -14 63 -16 241 l-2 237 80 0 c45 0 95 -6 113 -14z m197
-227 c0 -188 -3 -240 -12 -237 -10 4 -14 63 -16 241 -2 206 0 237 13 237 13 0
15 -32 15 -241z m862 29 l163 -213 3 213 c2 164 5 213 15 209 9 -3 12 -61 12
-238 0 -199 -2 -234 -15 -234 -8 0 -82 88 -165 197 l-150 196 -3 -199 c-1
-121 -6 -199 -12 -199 -6 0 -10 80 -10 211 0 197 -1 213 -21 240 -20 29 -20
29 0 29 14 0 67 -62 183 -212z m568 202 c0 -6 -42 -10 -105 -10 l-105 0 0
-102 0 -103 97 0 c68 0 98 -4 100 -12 4 -10 -20 -13 -96 -13 l-101 0 0 -100 0
-100 105 0 c87 0 105 -3 105 -15 0 -12 -20 -15 -120 -15 l-120 0 0 240 0 240
120 0 c73 0 120 -4 120 -10z"/>
<path d="M1034 2595 c-3 -8 -3 -18 0 -23 3 -5 -3 -21 -14 -35 -15 -19 -19 -34
-14 -54 7 -30 34 -75 34 -57 0 5 -4 14 -10 20 -13 13 4 36 22 29 25 -10 28
-56 7 -100 -14 -32 -18 -35 -19 -17 0 13 -4 20 -10 17 -5 -3 -10 -19 -10 -35
0 -33 -16 -49 -24 -23 -3 10 -3 -106 -1 -257 2 -151 4 -298 5 -327 0 -50 1
-52 28 -51 15 1 35 -2 44 -6 13 -6 20 -2 27 15 5 13 10 18 10 12 1 -7 5 -13
10 -13 6 0 9 65 9 155 -1 122 -4 155 -15 155 -15 0 -18 16 -4 24 5 4 12 0 14
-6 3 -7 6 11 6 40 1 47 3 52 24 52 18 0 19 -2 7 -10 -11 -7 -6 -8 18 -4 33 7
33 8 36 -46 1 -16 46 -28 46 -12 0 5 15 13 33 17 l32 8 -35 7 c-19 4 -28 8
-20 9 11 2 9 5 -5 11 -18 8 -18 9 -2 9 11 1 33 7 50 15 18 8 51 16 75 18 42 4
43 4 20 -14 l-23 -18 24 0 c13 0 40 12 60 27 l36 26 -30 -33 c-21 -23 -24 -30
-10 -22 27 14 59 50 81 92 22 42 25 164 5 224 -28 83 -119 154 -231 180 -88
21 -278 22 -286 1z m246 -92 c36 -6 109 -51 110 -67 0 -5 -8 -2 -17 7 -25 22
-96 44 -173 53 -60 7 -62 8 -30 15 19 4 44 5 55 3 11 -3 36 -8 55 -11z m32
-38 c47 -12 88 -56 107 -115 10 -30 14 -56 10 -58 -5 -2 -9 -13 -9 -25 0 -11
-10 -32 -22 -45 l-23 -25 28 18 c33 21 36 9 4 -20 -13 -11 -17 -16 -10 -11 7
5 13 6 13 2 0 -3 -12 -13 -26 -23 -18 -11 -50 -18 -99 -19 -39 -1 -81 -7 -93
-13 -11 -6 -30 -11 -41 -11 -19 0 -20 6 -20 101 0 56 -2 104 -6 107 -3 3 -5
-8 -5 -24 0 -21 -3 -25 -9 -14 -6 8 -8 28 -5 45 4 24 3 26 -5 10 -8 -16 -10
-10 -10 28 -1 28 3 47 10 47 6 0 9 7 5 15 -3 8 -2 23 2 33 5 13 8 11 13 -13 7
-30 7 -30 8 -3 1 21 6 27 29 30 28 3 107 -6 154 -17z m-196 -557 c-3 -24 -6
-68 -7 -98 -1 -49 -2 -51 -8 -20 -6 31 -6 96 -2 170 1 21 3 22 11 8 6 -9 8
-36 6 -60z"/>
<path d="M1263 2163 c9 -2 25 -2 35 0 9 3 1 5 -18 5 -19 0 -27 -2 -17 -5z"/>
<path d="M981 1714 c0 -11 3 -14 6 -6 3 7 2 16 -1 19 -3 4 -6 -2 -5 -13z"/>
<path d="M1004 1091 c-110 -50 -154 -186 -98 -300 78 -156 305 -156 384 0 24
46 27 143 6 192 -17 43 -69 94 -113 112 -48 20 -130 18 -179 -4z"/>
<path d="M390 996 l0 -115 69 2 c85 3 116 22 131 78 25 91 -31 149 -142 149
l-58 0 0 -114z"/>
<path d="M471 229 c-13 -5 -30 -17 -37 -27 -16 -20 -19 -135 -4 -162 13 -25
65 -41 94 -30 28 10 40 26 27 34 -5 4 -12 2 -16 -4 -10 -17 -61 -11 -78 8 -24
27 -23 123 1 145 21 20 45 21 74 6 25 -13 37 -3 17 15 -21 20 -51 26 -78 15z"/>
<path d="M1294 227 c-9 -24 1 -222 11 -222 6 0 11 14 13 31 3 30 6 32 51 38
134 18 108 166 -29 166 -24 0 -43 -5 -46 -13z m120 -33 c9 -8 16 -26 16 -39 0
-35 -26 -55 -71 -55 l-39 0 0 55 0 55 39 0 c23 0 46 -7 55 -16z"/>
<path d="M1500 220 c0 -5 5 -10 10 -10 6 0 10 5 10 10 0 6 -4 10 -10 10 -5 0
-10 -4 -10 -10z"/>
<path d="M645 158 c-31 -17 -45 -39 -45 -73 0 -38 37 -77 72 -76 91 2 88 0 88
52 0 62 -6 77 -41 94 -33 18 -47 18 -74 3z m69 -29 c30 -23 33 -45 10 -77 -30
-44 -104 -16 -104 39 0 16 44 59 60 59 4 0 19 -9 34 -21z"/>
<path d="M816 154 c-34 -34 -13 -72 44 -79 70 -9 64 -42 -8 -47 -53 -4 -60
-22 -9 -26 44 -4 87 19 87 47 0 27 -32 51 -68 51 -18 0 -32 5 -32 10 0 6 0 13
0 18 -1 4 16 9 36 12 21 3 39 11 42 18 6 18 -73 16 -92 -4z"/>
<path d="M999 141 c-34 -34 -37 -68 -9 -104 24 -30 63 -42 91 -27 15 9 24 8
35 -1 16 -13 17 -12 14 66 -2 89 -73 124 -131 66z m108 -39 c11 -46 -29 -82
-74 -66 -24 8 -28 15 -28 49 0 32 5 42 24 51 32 16 69 -1 78 -34z"/>
<path d="M1500 90 c0 -47 4 -80 10 -80 6 0 10 33 10 80 0 47 -4 80 -10 80 -6
0 -10 -33 -10 -80z"/>
<path d="M1589 141 c-43 -44 -34 -98 22 -127 30 -15 35 -15 66 0 58 28 66 96
16 136 -36 28 -70 25 -104 -9z m99 -14 c17 -13 15 -57 -5 -79 -36 -40 -96 -10
-91 46 5 48 54 65 96 33z"/>
<path d="M1770 86 c0 -56 4 -85 10 -81 6 3 10 28 10 54 0 57 17 84 54 84 41 0
59 -25 64 -87 5 -68 22 -64 22 5 0 42 -5 55 -29 80 -30 29 -64 37 -91 19 -9
-5 -19 -5 -27 2 -10 8 -13 -7 -13 -76z"/>
<path d="M2013 160 c-75 -30 -45 -153 37 -153 31 0 70 27 57 40 -4 3 -13 1
-19 -5 -19 -19 -63 -14 -83 8 -20 22 -21 22 58 20 45 -1 58 2 63 15 9 22 -13
60 -43 74 -28 13 -40 13 -70 1z m75 -32 c22 -22 12 -28 -45 -28 -55 0 -56 0
-38 20 20 22 64 27 83 8z"/>
</g>
</svg>
